name Walk5.mot
datacolumns 19
datarows 22
range 2.48000000 2.50100000
endheader

                time	   L_ground_force_vx	   L_ground_force_vy	   L_ground_force_vz	   L_ground_force_px	   L_ground_force_py	   L_ground_force_pz	   R_ground_force_vx	   R_ground_force_vy	   R_ground_force_vz	   R_ground_force_px	   R_ground_force_py	   R_ground_force_pz	   L_ground_torque_x	   L_ground_torque_y	   L_ground_torque_z	   R_ground_torque_x	   R_ground_torque_y	   R_ground_torque_z	
          2.48000000	         -5.38368782	         74.20085705	         -6.01289785	         -0.15327778	          0.00000000	         -0.02974267	         -0.00000000	          0.00000000	          0.00000000	          0.00000000	          0.00000000	          0.00000000	          0.00000000	          0.12221125	          0.00000000	          0.00000000	          0.00000000	          0.00000000	
          2.48100000	         -6.15989913	         81.16718645	         -6.35597245	         -0.16242944	          0.00000000	         -0.03153998	         -0.00000000	          0.00000000	          0.00000000	          0.00000000	          0.00000000	          0.00000000	          0.00000000	          0.13740228	          0.00000000	          0.00000000	          0.00000000	          0.00000000	
          2.48200000	         -6.98280009	         88.44564915	         -6.70467767	         -0.17176070	          0.00000000	         -0.03337404	         -0.00000000	          0.00000000	          0.00000000	          0.00000000	          0.00000000	          0.00000000	          0.00000000	          0.15343748	          0.00000000	          0.00000000	          0.00000000	          0.00000000	
          2.48300000	         -7.85333081	         96.03519075	         -7.05809663	         -0.18124971	          0.00000000	         -0.03524070	         -0.00000000	          0.00000000	          0.00000000	          0.00000000	          0.00000000	          0.00000000	          0.00000000	          0.17032907	          0.00000000	          0.00000000	          0.00000000	          0.00000000	
          2.48400000	         -8.77232209	        103.93337416	         -7.41520776	         -0.19087194	          0.00000000	         -0.03713527	         -0.00000000	          0.00000000	          0.00000000	          0.00000000	          0.00000000	          0.00000000	          0.00000000	          0.18808687	          0.00000000	          0.00000000	          0.00000000	          0.00000000	
          2.48500000	         -9.74048177	        112.13626114	         -7.77487932	         -0.20060004	          0.00000000	         -0.03905254	         -0.00000000	          0.00000000	          0.00000000	          0.00000000	          0.00000000	          0.00000000	          0.00000000	          0.20671803	          0.00000000	          0.00000000	          0.00000000	          0.00000000	
          2.48600000	        -10.75838042	        120.63828911	         -8.13586382	         -0.21040366	          0.00000000	         -0.04098668	         -0.00000000	          0.00000000	          0.00000000	          0.00000000	          0.00000000	          0.00000000	          0.00000000	          0.22622677	          0.00000000	          0.00000000	          0.00000000	          0.00000000	
          2.48700000	        -11.82643621	        129.43214315	         -8.49679244	         -0.22024933	          0.00000000	         -0.04293129	         -0.00000000	          0.00000000	          0.00000000	          0.00000000	          0.00000000	          0.00000000	          0.00000000	          0.24661406	          0.00000000	          0.00000000	          0.00000000	          0.00000000	
          2.48800000	        -12.94490151	        138.50863883	         -8.85617431	         -0.23010076	          0.00000000	         -0.04487938	         -0.00000000	          0.00000000	          0.00000000	          0.00000000	          0.00000000	          0.00000000	          0.00000000	          0.26787726	          0.00000000	          0.00000000	          0.00000000	          0.00000000	
          2.48900000	        -14.11385716	        147.85665551	         -9.21241275	         -0.23992044	          0.00000000	         -0.04682372	         -0.00000000	          0.00000000	          0.00000000	          0.00000000	          0.00000000	          0.00000000	          0.00000000	          0.29000944	          0.00000000	          0.00000000	          0.00000000	          0.00000000	
          2.49000000	        -15.33321448	        157.46313206	         -9.56384005	         -0.24967225	          0.00000000	         -0.04875731	         -0.00000000	          0.00000000	          0.00000000	          0.00000000	          0.00000000	          0.00000000	          0.00000000	          0.31299854	          0.00000000	          0.00000000	          0.00000000	          0.00000000	
          2.49100000	        -16.60271629	        167.31308746	         -9.90875481	         -0.25932303	          0.00000000	         -0.05067368	         -0.00000000	          0.00000000	          0.00000000	          0.00000000	          0.00000000	          0.00000000	          0.00000000	          0.33682683	          0.00000000	          0.00000000	          0.00000000	          0.00000000	
          2.49200000	        -17.92193141	        177.38964597	        -10.24545203	         -0.26884286	          0.00000000	         -0.05256699	         -0.00000000	          0.00000000	          0.00000000	          0.00000000	          0.00000000	          0.00000000	          0.00000000	          0.36147089	          0.00000000	          0.00000000	          0.00000000	          0.00000000	
          2.49300000	        -19.29024417	        187.67408672	        -10.57224797	         -0.27820492	          0.00000000	         -0.05443197	         -0.00000000	          0.00000000	          0.00000000	          0.00000000	          0.00000000	          0.00000000	          0.00000000	          0.38690194	          0.00000000	          0.00000000	          0.00000000	          0.00000000	
          2.49400000	        -20.70684013	        198.14593947	        -10.88750238	         -0.28738527	          0.00000000	         -0.05626396	         -0.00000000	          0.00000000	          0.00000000	          0.00000000	          0.00000000	          0.00000000	          0.00000000	          0.41308625	          0.00000000	          0.00000000	          0.00000000	          0.00000000	
          2.49500000	        -22.17068810	        208.78314073	        -11.18963753	         -0.29636274	          0.00000000	         -0.05805887	         -0.00000000	          0.00000000	          0.00000000	          0.00000000	          0.00000000	          0.00000000	          0.00000000	          0.43998544	          0.00000000	          0.00000000	          0.00000000	          0.00000000	
          2.49600000	        -23.68051876	        219.56226088	        -11.47715365	         -0.30511872	          0.00000000	         -0.05981311	         -0.00000000	          0.00000000	         -0.00000000	          0.00000000	          0.00000000	          0.00000000	          0.00000000	          0.46755622	          0.00000000	          0.00000000	          0.00000000	          0.00000000	
          2.49700000	        -25.23480063	        230.45880407	        -11.74863946	         -0.31363706	          0.00000000	         -0.06152360	         -0.00000000	          0.00000000	         -0.00000000	          0.00000000	          0.00000000	          0.00000000	          0.00000000	          0.49575003	          0.00000000	          0.00000000	          0.00000000	          0.00000000	
          2.49800000	        -26.83171523	        241.44757018	        -12.00277688	         -0.32190388	          0.00000000	         -0.06318771	         -0.00000000	          0.00000000	         -0.00000000	          0.00000000	          0.00000000	         -0.00000000	          0.00000000	          0.52451234	          0.00000000	          0.00000000	          0.00000000	          0.00000000	
          2.49900000	        -28.46913440	        252.50305570	        -12.23833898	         -0.32990744	          0.00000000	         -0.06480321	         -0.00000000	          0.00000000	         -0.00000000	          0.00000000	          0.00000000	         -0.00000000	          0.00000000	          0.55378241	          0.00000000	          0.00000000	          0.00000000	          0.00000000	
          2.50000000	        -30.14460370	        263.59986171	        -12.45418120	         -0.33763799	          0.00000000	         -0.06636828	         -0.00000000	          0.00000000	         -0.00000000	         -0.00000000	          0.00000000	         -0.00000000	          0.00000000	          0.58349347	          0.00000000	          0.00000000	          0.00000000	          0.00000000	
          2.50100000	        -31.85533563	        274.71307601	        -12.64922725	         -0.34508764	          0.00000000	         -0.06788144	         -0.00000000	          0.00000000	         -0.00000000	         -0.00000000	          0.00000000	         -0.00000000	          0.00000000	          0.61357370	          0.00000000	          0.00000000	          0.00000000	          0.00000000	
